<svg width="21" height="20" viewBox="0 0 21 20" fill="none" xmlns="http://www.w3.org/2000/svg">
<path fill-rule="evenodd" clip-rule="evenodd" d="M2.75 17.1875C2.56766 17.1875 2.3928 17.1151 2.26386 16.9861C2.13493 16.8572 2.0625 16.6823 2.0625 16.5V2.75C2.0625 2.56766 2.13493 2.3928 2.26386 2.26386C2.3928 2.13493 2.56766 2.0625 2.75 2.0625H15.4688C15.7423 2.0625 16.0046 1.95385 16.198 1.76045C16.3914 1.56706 16.5 1.30475 16.5 1.03125C16.5 0.757746 16.3914 0.495443 16.198 0.302046C16.0046 0.108649 15.7423 4.07553e-09 15.4688 0H2.75C2.02065 0 1.32118 0.289731 0.805456 0.805456C0.289731 1.32118 0 2.02065 0 2.75V16.5C0 17.2293 0.289731 17.9288 0.805456 18.4445C1.32118 18.9603 2.02065 19.25 2.75 19.25H16.5C17.2293 19.25 17.9288 18.9603 18.4445 18.4445C18.9603 17.9288 19.25 17.2293 19.25 16.5V12.0312C19.25 11.7577 19.1414 11.4954 18.948 11.302C18.7546 11.1086 18.4923 11 18.2188 11C17.9452 11 17.6829 11.1086 17.4895 11.302C17.2961 11.4954 17.1875 11.7577 17.1875 12.0312V16.5C17.1875 16.6823 17.1151 16.8572 16.9861 16.9861C16.8572 17.1151 16.6823 17.1875 16.5 17.1875H9.625H2.75ZM20.3225 5.06C20.5047 4.86451 20.6038 4.60595 20.5991 4.33878C20.5944 4.07162 20.4862 3.81671 20.2972 3.62777C20.1083 3.43883 19.8534 3.3306 19.5862 3.32588C19.3191 3.32117 19.0605 3.42034 18.865 3.6025L11.2227 11.2434L8.64738 8.58138C8.55341 8.48319 8.44097 8.40455 8.31651 8.34997C8.19206 8.29539 8.05804 8.26595 7.92217 8.26333C7.78629 8.26072 7.65124 8.28499 7.52478 8.33474C7.39831 8.3845 7.28293 8.45876 7.18526 8.55326C7.0876 8.64775 7.00957 8.76062 6.95567 8.88538C6.90177 9.01013 6.87306 9.14431 6.87118 9.28019C6.86931 9.41608 6.89432 9.55099 6.94476 9.67719C6.99521 9.80338 7.0701 9.91835 7.16512 10.0155L10.4693 13.431C10.5643 13.5296 10.6781 13.6083 10.8039 13.6624C10.9297 13.7166 11.065 13.7451 11.202 13.7464C11.339 13.7477 11.4748 13.7217 11.6016 13.6699C11.7284 13.6181 11.8436 13.5416 11.9405 13.4447L20.3225 5.06Z" fill="white"/>
</svg>
