<svg width="20" height="23" viewBox="0 0 20 23" fill="none" xmlns="http://www.w3.org/2000/svg">
<path d="M12.8561 13.9274C12.7155 13.8814 11.8264 13.4807 12.382 11.7919H12.374C13.8221 10.3005 14.9288 7.9005 14.9288 5.53769C14.9288 1.90458 12.5129 0 9.70512 0C6.89558 0 4.49296 1.90369 4.49296 5.53769C4.49296 7.91023 5.59342 10.3199 7.05038 11.8078C7.61831 13.2975 6.60277 13.8504 6.39046 13.9283C3.45 14.9916 0 16.9298 0 18.8432V19.5606C0 22.1676 5.05469 22.7603 9.73254 22.7603C14.4175 22.7603 19.4085 22.1676 19.4085 19.5606V18.8432C19.4085 16.8723 15.9417 14.9491 12.8561 13.9274Z" fill="white"/>
</svg>
