<svg width="22" height="23" viewBox="0 0 22 23" fill="none" xmlns="http://www.w3.org/2000/svg">
<path d="M21.7104 19.3192L17.9505 1.44337C17.9019 1.20961 17.8076 0.987754 17.673 0.790557C17.5383 0.593359 17.3661 0.424705 17.1661 0.294283C16.9661 0.163861 16.7423 0.0742409 16.5075 0.0305717C16.2728 -0.0130975 16.0317 -0.00995518 15.7982 0.0398181L10.4955 1.17943C10.0265 1.28213 9.61694 1.56587 9.35601 1.96893C9.09508 2.372 9.00385 2.86179 9.10215 3.33177L12.862 21.2076C12.9457 21.6154 13.1674 21.9819 13.4896 22.2456C13.8119 22.5092 14.2151 22.6539 14.6314 22.6553C14.7601 22.6551 14.8884 22.6414 15.0143 22.6145L20.317 21.4749C20.7866 21.372 21.1965 21.0877 21.4575 20.6839C21.7185 20.2801 21.8093 19.7896 21.7104 19.3192ZM10.875 2.96134V2.95115L16.1766 1.81833L16.5538 3.61611L11.2522 4.75685L10.875 2.96134ZM12.0078 8.32861L11.6283 6.52743L16.9321 5.38783L17.3105 7.189L12.0078 8.32861ZM19.9375 19.7032L14.6359 20.836L14.2587 19.0382L19.5603 17.8975L19.9375 19.693V19.7032ZM7.25 0.905287H1.8125C1.3318 0.905287 0.870779 1.09625 0.530869 1.43616C0.190959 1.77607 0 2.23708 0 2.71779V20.8428C0 21.3235 0.190959 21.7845 0.530869 22.1244C0.870779 22.4643 1.3318 22.6553 1.8125 22.6553H7.25C7.73071 22.6553 8.19172 22.4643 8.53163 22.1244C8.87154 21.7845 9.0625 21.3235 9.0625 20.8428V2.71779C9.0625 2.23708 8.87154 1.77607 8.53163 1.43616C8.19172 1.09625 7.73071 0.905287 7.25 0.905287ZM1.8125 2.71779H7.25V4.53029H1.8125V2.71779ZM7.25 20.8428H1.8125V19.0303H7.25V20.8428Z" fill="white"/>
</svg>
