<svg width="205" height="256" viewBox="0 0 205 256" fill="none" xmlns="http://www.w3.org/2000/svg">
<path d="M57.9165 184.146C62.0928 190.43 68.3573 195.144 70.9675 196.715C55.9327 187.498 60.1787 165.642 64.181 155.866C58.5667 155.542 50.597 157.759 45.3872 168.959C42.2002 175.81 39.9689 187.334 40.1671 199.857C42.2552 204.046 54.993 183.727 57.9165 184.146Z" fill="#8C90FF"/>
<path d="M130.48 165.293C125.051 153.143 116.733 152.201 113.253 153.248C110.747 166.655 84.0186 187.812 70.9675 196.715C76.536 193.223 88.8214 185.822 93.4153 184.146C98.0093 182.47 116.907 202.999 119.517 199.857C124.738 193.573 129.784 172.101 130.48 165.293Z" fill="#8C90FF"/>
<path fill-rule="evenodd" clip-rule="evenodd" d="M130.48 165.293C129.784 172.101 124.738 193.573 119.517 199.857C116.907 202.999 98.0093 182.47 93.4153 184.146C88.8214 185.822 76.536 193.223 70.9675 196.715C68.3573 195.144 62.0928 190.43 57.9165 184.146C54.993 183.727 42.2552 204.046 40.1671 199.857C39.9689 187.334 42.2002 175.81 45.3872 168.959C30.8112 171.228 7.56118 177.694 -2.64037 187.288C-10.9933 195.144 -21.4341 217.139 -23 236.515C6.23442 261.653 92.1626 299.149 202 248.037C199.912 222.376 192.081 200.381 183.729 190.954C175.376 181.528 146.142 169.832 130.48 165.293ZM80.364 208.236C77.7538 208.236 75.2225 213.473 80.364 213.473C84.5404 213.473 83.4963 208.236 80.364 208.236ZM74.0995 241.229C71.4893 241.229 68.958 246.466 74.0995 246.466C78.2758 246.466 77.2318 241.229 74.0995 241.229Z" fill="#8C90FF"/>
<path d="M148.23 81.5019C168.276 32.0651 130.132 14.1198 109.599 12.3741C97.9397 1.55107 66.478 -9.51635 33.9026 32.7982C25.2019 40.4791 12.0812 60.5541 29.2042 79.4071M148.23 81.5019L138.833 87.7862M148.23 81.5019C154.494 88.659 155.538 108.21 139.355 114.495C137.789 114.844 133.717 114.285 132.046 113.447C130.748 112.796 124.399 127.543 113.253 138.785M29.2042 79.4071L37.0348 86.7388C36.3387 80.8036 36.304 68.3048 41.7332 65.791C48.5197 62.6489 75.6659 38.0352 76.1879 37.5115M29.2042 79.4071C22.5917 86.7388 18.7633 110.305 40.1671 115.018C43.3881 125.269 51.5965 137.156 63.6589 144.414M138.833 86.7388C138.833 78.3597 135.701 72.7736 134.135 71.028C127.452 68.5142 114.993 46.5889 109.599 35.9404C107.162 32.2746 100.619 26.9329 93.9374 34.893C85.5847 44.8432 80.8863 55.3171 71.4896 59.5067C63.9722 62.8583 56.1763 60.2049 53.2181 58.4593M50.6079 42.7485C47.8237 44.8432 41.8376 50.3944 40.1671 55.8408M79.3202 106.639C80.5383 107.163 80.6775 107.163 81.9304 107.163M70.9675 119.732C75.8399 123.223 88.1949 128.111 98.6357 119.732M77.7541 81.5019C79.6682 79.2325 86.42 75.1128 91.8492 80.9782M91.8492 80.9782C94.359 67.8858 123.172 61.6015 126.304 84.1203C129.601 107.826 86.6288 108.21 91.8492 80.9782ZM63.6589 144.414C70.4946 148.527 78.568 151.153 87.6729 151.153C97.9339 151.153 106.479 145.616 113.253 138.785M63.6589 144.414L64.181 155.866M64.181 155.866C60.1787 165.642 55.9327 187.498 70.9675 196.715M64.181 155.866C58.5667 155.542 50.597 157.759 45.3872 168.959M113.253 138.785V153.248M113.253 153.248C116.733 152.201 125.051 153.143 130.48 165.293M113.253 153.248C110.747 166.655 84.0186 187.812 70.9675 196.715M130.48 165.293C129.784 172.101 124.738 193.573 119.517 199.857C116.907 202.999 98.0093 182.47 93.4153 184.146C88.8214 185.822 76.536 193.223 70.9675 196.715M130.48 165.293C146.142 169.832 175.376 181.528 183.729 190.954C192.081 200.381 199.912 222.376 202 248.037C92.1626 299.149 6.23442 261.653 -23 236.515C-21.4341 217.139 -10.9933 195.144 -2.64037 187.288C7.56118 177.694 30.8112 171.228 45.3872 168.959M70.9675 196.715C68.3573 195.144 62.0928 190.43 57.9165 184.146C54.993 183.727 42.2552 204.046 40.1671 199.857C39.9689 187.334 42.2002 175.81 45.3872 168.959M70.9675 196.715C66.4431 218.186 57.7074 262.281 58.9603 266.89M147.185 230.231L148.229 266.89M18.7631 223.947C18.3455 225.204 12.6726 244.371 9.88838 253.797M80.364 208.236C77.7538 208.236 75.2225 213.473 80.364 213.473M80.364 208.236C83.4963 208.236 84.5404 213.473 80.364 213.473M80.364 208.236V213.473M43.8213 80.9782C46.3312 67.8858 75.1439 61.6015 78.2761 84.1203C81.5735 107.826 38.6009 108.21 43.8213 80.9782ZM108.555 82.5492C106.466 82.5492 105.944 87.7862 108.032 88.3099C110.121 88.8336 110.333 82.5492 108.555 82.5492ZM62.0928 82.0256C60.0046 82.0256 59.4826 87.2625 61.5708 87.7862C63.6589 88.3099 63.871 82.0256 62.0928 82.0256ZM74.0995 241.229C71.4893 241.229 68.958 246.466 74.0995 246.466C78.2759 246.466 77.2318 241.229 74.0995 241.229Z" stroke="white" stroke-width="5" stroke-linecap="round"/>
</svg>
